<?xml version="1.0" standalone="no"?>
<!DOCTYPE svg PUBLIC "-//W3C//DTD SVG 20010904//EN"
 "http://www.w3.org/TR/2001/REC-SVG-20010904/DTD/svg10.dtd">
<svg version="1.0" xmlns="http://www.w3.org/2000/svg"
 width="859.000000pt" height="859.000000pt" viewBox="0 0 859.000000 859.000000"
 preserveAspectRatio="xMidYMid meet">
<metadata>
Created by potrace 1.11, written by Peter Selinger 2001-2013
</metadata>
<g transform="translate(0.000000,859.000000) scale(0.100000,-0.100000)"
fill="#000000" stroke="none">
<path d="M2990 7561 c0 -5 -40 -12 -90 -16 -49 -4 -90 -11 -90 -16 0 -5 -22
-9 -49 -9 -29 0 -51 -5 -53 -12 -2 -6 -31 -13 -66 -16 -34 -2 -62 -8 -62 -13
0 -5 -16 -9 -36 -9 -19 0 -42 -7 -50 -15 -9 -8 -33 -15 -55 -15 -21 0 -39 -4
-39 -10 0 -5 -11 -12 -25 -16 -14 -3 -25 -10 -25 -15 0 -5 -22 -9 -50 -9 -27
0 -50 -4 -50 -10 0 -5 -10 -10 -23 -10 -13 0 -32 -7 -43 -15 -10 -8 -27 -15
-37 -15 -10 0 -25 -6 -32 -12 -37 -34 -47 -38 -80 -38 -24 0 -35 -4 -35 -15 0
-8 -7 -15 -15 -15 -8 0 -15 -4 -15 -10 0 -5 -11 -10 -25 -10 -14 0 -25 -4 -25
-10 0 -5 -11 -12 -25 -16 -14 -3 -25 -10 -25 -15 0 -5 -11 -9 -25 -9 -16 0
-25 -6 -25 -15 0 -9 -9 -15 -25 -15 -14 0 -25 -4 -25 -10 0 -5 -11 -10 -25
-10 -16 0 -25 -6 -25 -15 0 -8 -7 -15 -15 -15 -8 0 -15 -4 -15 -10 0 -5 -11
-10 -25 -10 -16 0 -25 -6 -25 -15 0 -9 -9 -15 -21 -15 -22 0 -49 -22 -49 -39
0 -6 -11 -11 -25 -11 -14 0 -25 -4 -25 -10 0 -5 -7 -10 -15 -10 -8 0 -15 -7
-15 -15 0 -8 -5 -15 -11 -15 -6 0 -17 -6 -24 -12 -33 -30 -45 -38 -55 -38 -5
0 -10 -4 -10 -9 0 -5 -11 -12 -25 -15 -18 -5 -25 -13 -25 -31 0 -16 -6 -25
-15 -25 -8 0 -15 -4 -15 -10 0 -5 -11 -10 -25 -10 -14 0 -25 -5 -25 -11 0 -14
-25 -39 -39 -39 -6 0 -11 -7 -11 -15 0 -8 -5 -15 -11 -15 -14 0 -39 -25 -39
-39 0 -6 -11 -11 -25 -11 -20 0 -25 -5 -25 -25 0 -14 -5 -25 -11 -25 -14 0
-39 -25 -39 -39 0 -6 -5 -11 -11 -11 -14 0 -39 -25 -39 -39 0 -6 -5 -11 -11
-11 -14 0 -119 -105 -119 -119 0 -6 -4 -11 -9 -11 -5 0 -13 -10 -17 -22 -3
-12 -22 -36 -40 -54 -19 -17 -34 -35 -34 -38 0 -4 -6 -14 -13 -21 -29 -33 -37
-45 -37 -55 0 -5 -7 -10 -15 -10 -8 0 -15 -7 -15 -15 0 -8 -4 -15 -10 -15 -5
0 -10 -11 -10 -25 0 -16 -6 -25 -15 -25 -9 0 -15 -9 -15 -25 0 -14 -4 -25 -10
-25 -5 0 -10 -11 -10 -25 0 -14 -5 -25 -11 -25 -19 0 -69 -58 -69 -79 0 -12
-4 -21 -10 -21 -5 0 -10 -18 -10 -40 0 -22 -5 -40 -11 -40 -15 0 -35 -22 -43
-48 -4 -12 -12 -22 -17 -22 -5 0 -9 -12 -9 -26 0 -14 -6 -32 -13 -39 -33 -37
-37 -47 -37 -80 0 -19 -4 -35 -9 -35 -5 0 -12 -11 -15 -25 -4 -14 -11 -25 -16
-25 -6 0 -10 -22 -10 -50 0 -27 -4 -50 -10 -50 -5 0 -10 -7 -10 -15 0 -8 -7
-15 -15 -15 -11 0 -15 -12 -15 -48 0 -27 -6 -57 -15 -68 -8 -10 -15 -32 -15
-47 0 -16 -7 -35 -15 -43 -8 -9 -15 -29 -15 -45 0 -16 -4 -29 -10 -29 -6 0
-10 -32 -10 -76 0 -64 -2 -75 -15 -70 -12 4 -15 -6 -15 -64 0 -40 -4 -70 -10
-70 -6 0 -10 -57 -10 -150 0 -93 -4 -150 -10 -150 -6 0 -10 -48 -10 -125 0
-77 4 -125 10 -125 6 0 10 -53 10 -139 0 -114 3 -140 15 -145 11 -4 15 -23 15
-81 0 -43 4 -75 10 -75 6 0 10 -21 10 -46 0 -27 6 -51 15 -60 8 -9 15 -33 15
-55 0 -21 5 -39 10 -39 6 0 10 -22 10 -50 0 -38 4 -50 15 -50 11 0 15 -12 15
-50 0 -27 4 -50 9 -50 5 0 12 -11 15 -25 4 -14 11 -25 16 -25 6 0 10 -18 10
-40 0 -22 4 -40 9 -40 5 0 12 -11 15 -25 4 -14 11 -25 16 -25 6 0 10 -18 10
-40 0 -22 4 -40 10 -40 5 0 12 -11 16 -25 3 -14 10 -25 15 -25 5 0 9 -11 9
-25 0 -14 4 -25 10 -25 5 0 12 -11 16 -25 3 -14 10 -25 15 -25 5 0 9 -11 9
-25 0 -16 6 -25 15 -25 9 0 15 -9 15 -25 0 -14 5 -25 10 -25 6 0 10 -11 10
-25 0 -16 6 -25 15 -25 8 0 15 -7 15 -15 0 -8 5 -15 10 -15 6 0 10 -11 10 -25
0 -16 6 -25 15 -25 9 0 15 -9 15 -25 0 -14 5 -25 10 -25 6 0 10 -11 10 -25 0
-14 5 -25 11 -25 14 0 39 -25 39 -39 0 -6 7 -11 15 -11 9 0 15 -9 15 -25 0
-14 5 -25 11 -25 18 0 39 -27 39 -50 0 -23 21 -50 39 -50 6 0 11 -7 11 -15 0
-8 5 -15 11 -15 17 0 39 -27 39 -49 0 -12 6 -21 15 -21 8 0 15 -5 15 -11 0
-14 25 -39 39 -39 6 0 11 -7 11 -15 0 -8 5 -15 11 -15 33 0 39 -28 39 -179 0
-128 -2 -151 -15 -151 -13 0 -15 -51 -15 -395 0 -252 4 -395 10 -395 5 0 12
-11 16 -25 3 -14 11 -25 16 -25 16 0 38 -28 38 -49 0 -12 5 -21 10 -21 6 0 10
-7 10 -15 0 -9 10 -15 26 -15 26 0 54 -20 54 -39 0 -6 11 -11 25 -11 14 0 25
-4 25 -10 0 -5 18 -13 40 -16 22 -4 40 -10 40 -15 0 -5 34 -9 75 -9 43 0 75 4
75 10 0 6 11 10 25 10 16 0 25 6 25 15 0 11 11 15 40 15 22 0 40 4 40 10 0 5
11 12 25 16 14 3 25 10 25 15 0 5 11 9 25 9 16 0 25 6 25 15 0 9 9 15 25 15
14 0 25 5 25 10 0 6 11 10 25 10 16 0 25 6 25 15 0 9 9 15 25 15 14 0 25 5 25
10 0 6 11 10 25 10 16 0 25 6 25 15 0 9 9 15 25 15 14 0 25 4 25 9 0 5 11 12
25 15 14 4 25 11 25 16 0 6 11 10 25 10 14 0 25 4 25 9 0 5 11 12 25 15 14 4
25 11 25 16 0 6 14 10 30 10 17 0 30 4 30 10 0 5 11 12 25 16 14 3 25 10 25
15 0 5 11 9 25 9 14 0 25 4 25 10 0 5 11 12 25 16 14 3 25 10 25 15 0 5 11 9
25 9 16 0 25 6 25 16 0 14 8 16 47 11 26 -3 49 -10 51 -16 2 -6 26 -11 53 -11
27 0 49 -4 49 -9 0 -5 18 -11 40 -15 22 -3 40 -11 40 -16 0 -6 32 -10 75 -10
41 0 75 -4 75 -9 0 -5 23 -12 50 -16 28 -4 50 -11 50 -16 0 -5 51 -9 114 -9
92 0 115 -3 120 -15 8 -23 706 -23 706 0 0 12 19 15 115 15 63 0 115 4 115 9
0 4 21 11 47 14 26 3 49 10 51 16 2 6 26 11 53 11 37 0 49 4 49 15 0 11 12 15
50 15 28 0 50 5 50 10 0 6 18 10 40 10 29 0 40 4 40 15 0 11 12 15 50 15 28 0
50 5 50 10 0 6 23 10 50 10 38 0 50 4 50 15 0 8 7 15 15 15 8 0 15 5 15 10 0
6 11 10 24 10 14 0 31 7 40 15 8 8 31 15 50 15 20 0 36 5 36 10 0 6 11 10 25
10 16 0 25 6 25 15 0 9 9 15 25 15 14 0 25 4 25 9 0 5 11 12 25 15 14 4 25 11
25 16 0 6 11 10 25 10 14 0 25 4 25 9 0 5 11 12 25 15 14 4 25 11 25 16 0 6 7
10 15 10 8 0 15 7 15 15 0 9 9 15 25 15 14 0 25 5 25 10 0 6 11 10 25 10 16 0
25 6 25 15 0 8 7 15 15 15 8 0 15 5 15 10 0 6 11 10 25 10 16 0 25 6 25 15 0
9 9 15 21 15 22 0 49 22 49 39 0 6 11 11 25 11 14 0 25 5 25 10 0 6 7 10 15
10 8 0 15 7 15 15 0 8 5 15 11 15 14 0 39 25 39 39 0 6 11 11 25 11 14 0 25 5
25 11 0 14 25 39 39 39 6 0 11 7 11 15 0 8 5 15 11 15 14 0 39 25 39 39 0 8
80 11 255 11 163 0 255 4 255 10 0 6 53 10 140 10 87 0 140 -4 140 -10 0 -5
11 -10 25 -10 16 0 25 -6 25 -15 0 -8 5 -15 11 -15 6 0 17 -6 24 -12 35 -32
45 -38 60 -38 9 0 26 -11 39 -25 13 -14 33 -25 45 -25 11 0 21 -4 21 -9 0 -5
11 -12 25 -15 14 -4 25 -11 25 -16 0 -6 7 -10 15 -10 8 0 15 -7 15 -15 0 -9 9
-15 25 -15 14 0 25 -4 25 -10 0 -5 11 -10 25 -10 16 0 25 -6 25 -15 0 -8 7
-15 15 -15 8 0 15 -4 15 -10 0 -5 11 -10 25 -10 14 0 25 -5 25 -11 0 -17 27
-39 49 -39 12 0 21 -6 21 -15 0 -9 9 -15 25 -15 14 0 25 -4 25 -10 0 -5 7 -10
15 -10 8 0 15 -7 15 -15 0 -9 9 -15 21 -15 12 0 32 -11 45 -25 13 -14 28 -25
34 -25 6 0 21 -11 34 -25 13 -14 33 -25 45 -25 12 0 21 -6 21 -15 0 -9 9 -15
25 -15 14 0 25 -4 25 -10 0 -5 7 -10 15 -10 8 0 15 -7 15 -15 0 -9 9 -15 25
-15 14 0 25 -4 25 -10 0 -5 11 -10 25 -10 16 0 25 -6 25 -15 0 -9 9 -15 25
-15 14 0 25 -4 25 -10 0 -6 40 -10 100 -10 60 0 100 4 100 10 0 6 18 10 40 10
29 0 40 4 40 15 0 9 9 15 25 15 14 0 25 5 25 10 0 6 7 10 15 10 8 0 15 5 15
11 0 14 25 39 39 39 6 0 11 7 11 15 0 8 5 15 10 15 6 0 10 11 10 25 0 16 6 25
15 25 9 0 15 9 15 25 0 14 4 25 9 25 5 0 12 11 15 25 4 14 11 25 16 25 16 0
12 142 -5 164 -8 11 -15 35 -15 53 0 18 -4 33 -10 33 -5 0 -10 13 -10 29 0 16
-7 36 -15 45 -9 9 -15 33 -15 60 0 25 -4 46 -9 46 -5 0 -11 18 -15 40 -3 22
-11 40 -16 40 -6 0 -10 23 -10 50 0 28 -4 50 -10 50 -5 0 -10 23 -10 50 0 38
-4 50 -15 50 -11 0 -15 11 -15 40 0 22 -5 40 -11 40 -26 0 -39 30 -39 89 0 34
-4 61 -10 61 -5 0 -13 18 -16 40 -4 22 -10 40 -15 40 -5 0 -9 23 -9 50 0 28 4
50 10 50 5 0 12 11 16 25 3 14 10 25 15 25 5 0 9 5 9 11 0 12 25 39 36 39 3 0
21 16 40 35 18 19 37 35 43 35 6 0 11 7 11 15 0 8 5 15 10 15 6 0 10 11 10 25
0 16 6 25 15 25 8 0 15 7 15 15 0 8 5 15 10 15 6 0 10 11 10 25 0 14 5 25 11
25 14 0 39 25 39 39 0 6 7 11 15 11 9 0 15 9 15 21 0 12 11 32 25 45 14 13 25
32 25 44 0 11 5 20 10 20 6 0 10 11 10 25 0 14 5 25 11 25 15 0 35 22 43 48 4
12 12 22 17 22 5 0 9 12 9 26 0 14 6 32 13 39 32 36 37 46 37 65 0 12 7 28 15
36 8 9 15 26 15 40 0 13 5 24 10 24 6 0 10 11 10 25 0 16 6 25 15 25 11 0 15
12 15 50 0 28 4 50 9 50 5 0 12 11 15 25 4 14 11 25 16 25 6 0 10 18 10 40 0
22 5 40 10 40 6 0 10 28 10 64 0 44 5 69 15 80 11 11 15 37 15 100 0 70 3 86
15 86 12 0 15 14 15 65 0 37 4 65 10 65 6 0 10 70 10 190 0 105 -4 190 -9 190
-5 0 -11 44 -13 97 -3 63 -8 98 -16 101 -8 2 -12 33 -12 93 0 72 -3 89 -15 89
-9 0 -15 9 -15 25 0 14 -4 25 -10 25 -6 0 -10 28 -10 65 0 40 -4 65 -11 65
-23 0 -39 30 -39 74 0 34 -4 46 -15 46 -11 0 -15 11 -15 40 0 22 -4 40 -10 40
-5 0 -10 11 -10 25 0 16 -6 25 -15 25 -9 0 -15 9 -15 25 0 14 -4 25 -10 25 -5
0 -10 11 -10 25 0 16 -6 25 -15 25 -11 0 -15 11 -15 40 0 22 -5 40 -11 40 -17
0 -39 27 -39 50 0 19 -5 29 -37 65 -7 7 -13 18 -13 24 0 6 -7 11 -15 11 -9 0
-15 9 -15 25 0 14 -4 25 -10 25 -5 0 -10 7 -10 15 0 8 -4 15 -9 15 -5 0 -13
10 -17 22 -8 26 -28 48 -43 48 -6 0 -11 5 -11 11 0 14 -25 39 -39 39 -6 0 -11
11 -11 25 0 14 -4 25 -10 25 -5 0 -10 7 -10 15 0 8 -7 15 -15 15 -8 0 -15 5
-15 11 0 14 -25 39 -39 39 -6 0 -11 5 -11 11 0 14 -25 39 -39 39 -6 0 -11 7
-11 15 0 8 -5 15 -11 15 -14 0 -39 25 -39 39 0 6 -5 11 -11 11 -14 0 -39 25
-39 39 0 6 -5 11 -11 11 -14 0 -39 25 -39 39 0 6 -5 11 -11 11 -14 0 -39 25
-39 39 0 6 -7 11 -15 11 -8 0 -15 5 -15 11 0 16 -26 39 -45 39 -9 0 -26 11
-39 25 -13 14 -26 25 -30 25 -4 0 -14 6 -21 13 -33 29 -45 37 -55 37 -5 0 -10
7 -10 15 0 9 -9 15 -25 15 -14 0 -25 5 -25 10 0 6 -7 10 -15 10 -8 0 -15 7
-15 15 0 9 -9 15 -25 15 -14 0 -25 5 -25 10 0 6 -11 10 -25 10 -16 0 -25 6
-25 15 0 8 -5 15 -11 15 -6 0 -17 6 -24 13 -37 32 -46 37 -70 37 -14 0 -25 4
-25 10 0 5 -11 12 -25 16 -14 3 -25 10 -25 15 0 5 -11 9 -25 9 -14 0 -25 4
-25 10 0 5 -11 12 -25 16 -14 3 -25 10 -25 15 0 5 -22 9 -50 9 -38 0 -50 4
-50 15 0 9 -9 15 -25 15 -14 0 -25 5 -25 10 0 6 -22 10 -50 10 -27 0 -50 4
-50 10 0 5 -17 12 -37 16 -21 4 -40 10 -43 13 -7 9 -88 32 -134 38 -22 3 -46
12 -54 19 -8 8 -34 14 -63 14 -27 0 -49 5 -49 10 0 6 -67 10 -180 10 -113 0
-180 4 -180 10 0 6 -32 10 -75 10 -43 0 -75 -4 -75 -10 0 -6 -58 -10 -155 -10
-85 0 -155 -4 -155 -9 0 -4 -32 -11 -72 -13 -40 -3 -74 -11 -76 -17 -5 -14
-152 -15 -152 -1 0 6 -15 10 -34 10 -24 0 -38 7 -52 24 -10 14 -28 27 -41 31
-13 3 -23 10 -23 15 0 6 -11 10 -24 10 -13 0 -26 7 -30 15 -3 8 -15 15 -26 15
-11 0 -20 5 -20 10 0 6 -12 10 -26 10 -14 0 -32 7 -40 15 -9 8 -26 15 -40 15
-13 0 -24 5 -24 10 0 6 -11 10 -25 10 -16 0 -25 6 -25 15 0 11 -11 15 -40 15
-22 0 -40 5 -40 10 0 6 -22 10 -50 10 -27 0 -50 4 -50 10 0 5 -11 12 -25 16
-14 3 -25 10 -25 15 0 5 -17 9 -37 9 -21 1 -49 7 -63 15 -14 8 -37 14 -52 15
-16 0 -28 4 -28 9 0 4 -21 11 -47 14 -26 3 -49 10 -51 16 -2 6 -30 11 -68 11
-36 0 -64 4 -64 10 0 6 -32 10 -75 10 -60 0 -75 3 -75 15 0 13 -57 15 -455 15
-261 0 -455 -4 -455 -9z m860 -586 c0 -11 12 -15 50 -15 28 0 50 -4 50 -10 0
-5 18 -10 40 -10 29 0 40 -4 40 -15 0 -12 17 -15 90 -15 57 0 90 -4 90 -11 0
-25 30 -39 85 -39 36 0 62 -5 71 -14 16 -17 19 -36 4 -36 -5 0 -10 -5 -10 -11
0 -19 -58 -69 -79 -69 -12 0 -21 -4 -21 -10 0 -5 -7 -10 -15 -10 -8 0 -15 -7
-15 -15 0 -9 -9 -15 -21 -15 -12 0 -32 -11 -45 -25 -13 -14 -30 -25 -39 -25
-16 0 -45 -23 -45 -35 0 -11 -58 -65 -69 -65 -6 0 -11 -5 -11 -11 0 -14 -25
-39 -39 -39 -6 0 -11 -5 -11 -11 0 -14 -25 -39 -39 -39 -6 0 -11 -5 -11 -11 0
-14 -25 -39 -39 -39 -6 0 -11 -7 -11 -15 0 -8 -5 -15 -11 -15 -14 0 -39 -25
-39 -39 0 -6 -5 -11 -11 -11 -14 0 -39 -25 -39 -39 0 -6 -7 -11 -15 -11 -9 0
-15 -9 -15 -25 0 -14 -4 -25 -10 -25 -5 0 -10 -7 -10 -15 0 -8 -5 -15 -11 -15
-14 0 -39 -25 -39 -39 0 -6 -7 -11 -15 -11 -9 0 -15 -9 -15 -25 0 -14 -4 -25
-10 -25 -5 0 -10 -7 -10 -15 0 -8 -11 -25 -24 -38 -13 -13 -27 -33 -30 -45 -4
-12 -12 -22 -17 -22 -5 0 -9 -7 -9 -15 0 -8 -4 -15 -9 -15 -5 0 -12 -11 -15
-25 -4 -14 -11 -25 -16 -25 -6 0 -10 -7 -10 -15 0 -8 -4 -15 -10 -15 -5 0 -12
-11 -16 -25 -3 -14 -10 -25 -15 -25 -5 0 -9 -11 -9 -25 0 -16 -6 -25 -15 -25
-9 0 -15 -9 -15 -25 0 -14 -4 -25 -10 -25 -5 0 -10 -18 -10 -40 0 -22 -4 -40
-10 -40 -5 0 -12 -11 -16 -25 -3 -14 -10 -25 -15 -25 -5 0 -9 -16 -9 -35 0
-19 -4 -35 -10 -35 -5 0 -10 -6 -10 -14 0 -8 -6 -21 -13 -28 -8 -7 -17 -30
-21 -51 -4 -20 -11 -37 -16 -37 -6 0 -10 -22 -10 -50 0 -27 -4 -50 -10 -50 -5
0 -10 -22 -10 -50 0 -38 -4 -50 -15 -50 -12 0 -15 -15 -15 -75 0 -43 -4 -75
-10 -75 -6 0 -10 -130 -10 -370 0 -240 4 -370 10 -370 6 0 10 -37 10 -90 0
-73 3 -90 15 -90 9 0 15 -9 15 -25 0 -14 5 -25 10 -25 6 0 10 -21 10 -46 0
-27 6 -51 15 -60 8 -9 15 -33 15 -55 0 -21 4 -39 9 -39 5 0 12 -11 15 -25 4
-14 11 -25 16 -25 6 0 10 -18 10 -40 0 -22 5 -40 10 -40 6 0 10 -11 10 -25 0
-16 6 -25 15 -25 11 0 15 -11 15 -40 0 -22 5 -40 10 -40 6 0 10 -11 10 -25 0
-14 5 -25 11 -25 15 0 35 -22 43 -48 4 -12 12 -22 17 -22 5 0 9 -16 9 -36 0
-26 8 -43 29 -65 16 -16 34 -29 40 -29 6 0 11 -11 11 -25 0 -14 5 -25 10 -25
6 0 10 -11 10 -25 0 -16 6 -25 15 -25 8 0 15 -7 15 -15 0 -8 5 -15 10 -15 6 0
10 -11 10 -25 0 -14 5 -25 11 -25 14 0 39 -25 39 -39 0 -6 7 -11 15 -11 8 0
15 -5 15 -11 0 -6 6 -17 13 -24 29 -33 37 -45 37 -55 0 -5 5 -10 10 -10 6 0
10 -7 10 -15 0 -8 5 -15 11 -15 6 0 25 -16 43 -35 19 -19 38 -35 45 -35 6 0
11 -5 11 -11 0 -14 25 -39 39 -39 6 0 11 -5 11 -11 0 -14 25 -39 39 -39 6 0
11 -5 11 -11 0 -14 25 -39 39 -39 6 0 11 -7 11 -15 0 -8 5 -15 10 -15 10 0 22
-8 55 -37 7 -7 18 -13 24 -13 6 0 11 -5 11 -11 0 -14 25 -39 39 -39 6 0 11 -7
11 -15 0 -8 7 -15 15 -15 8 0 15 -4 15 -10 0 -5 11 -10 25 -10 14 0 25 -4 25
-9 0 -5 10 -13 22 -17 26 -8 48 -28 48 -43 0 -6 11 -11 25 -11 14 0 25 -4 25
-10 0 -5 7 -10 15 -10 8 0 15 -7 15 -15 0 -9 9 -15 25 -15 14 0 25 -4 25 -10
0 -5 11 -10 25 -10 16 0 25 -6 25 -15 0 -9 9 -15 25 -15 14 0 25 -4 25 -9 0
-5 11 -12 25 -15 14 -4 25 -11 25 -16 0 -6 11 -10 25 -10 14 0 25 -4 25 -9 0
-5 11 -12 25 -15 14 -4 25 -11 25 -16 0 -6 12 -10 26 -10 14 0 32 -7 40 -15 9
-8 26 -15 40 -15 34 0 33 -37 -1 -46 -14 -3 -25 -10 -25 -15 0 -5 -11 -9 -25
-9 -16 0 -25 -6 -25 -15 0 -9 -9 -15 -25 -15 -14 0 -25 -4 -25 -10 0 -5 -11
-10 -25 -10 -16 0 -25 -6 -25 -15 0 -11 -11 -15 -40 -15 -22 0 -40 -4 -40 -10
0 -5 -11 -10 -25 -10 -16 0 -25 -6 -25 -15 0 -9 -9 -15 -25 -15 -14 0 -25 -4
-25 -9 0 -5 -11 -12 -25 -15 -14 -4 -25 -11 -25 -16 0 -6 -22 -10 -50 -10 -27
0 -50 -4 -50 -9 0 -5 -18 -11 -40 -15 -22 -3 -40 -11 -40 -16 0 -6 -22 -10
-50 -10 -27 0 -50 -4 -50 -9 0 -5 -11 -12 -25 -15 -14 -4 -25 -11 -25 -16 0
-6 -38 -10 -90 -10 -73 0 -90 -3 -90 -15 0 -12 -18 -15 -100 -15 -60 0 -100
-4 -100 -10 0 -6 -83 -10 -230 -10 -126 0 -230 4 -230 8 0 5 -51 12 -112 16
-62 4 -114 11 -116 16 -2 6 -48 10 -103 10 -54 0 -99 4 -99 9 0 5 -18 11 -40
15 -22 3 -40 11 -40 16 0 6 -22 10 -50 10 -27 0 -50 5 -50 10 0 6 -11 10 -25
10 -16 0 -25 6 -25 15 0 11 -12 15 -50 15 -27 0 -50 5 -50 10 0 6 -11 10 -25
10 -16 0 -25 6 -25 15 0 12 -15 15 -75 15 -60 0 -75 -3 -75 -15 0 -8 -7 -15
-15 -15 -8 0 -15 -4 -15 -10 0 -5 -16 -10 -35 -10 -24 0 -35 -5 -35 -15 0 -8
-7 -15 -15 -15 -8 0 -15 -4 -15 -10 0 -5 -11 -10 -25 -10 -16 0 -25 -6 -25
-15 0 -9 -9 -15 -25 -15 -14 0 -25 -4 -25 -10 0 -5 -18 -10 -40 -10 -22 0 -40
-4 -40 -9 0 -5 -10 -13 -22 -17 -26 -8 -48 -28 -48 -43 0 -6 -18 -11 -40 -11
-22 0 -40 -4 -40 -10 0 -5 -11 -10 -25 -10 -16 0 -25 -6 -25 -15 0 -9 -9 -15
-25 -15 -14 0 -25 -4 -25 -10 0 -5 -11 -10 -25 -10 -16 0 -25 -6 -25 -15 0 -9
-9 -15 -25 -15 -14 0 -25 -4 -25 -10 0 -5 -11 -10 -25 -10 l-25 0 0 340 c0
220 4 340 10 340 6 0 10 35 10 86 0 89 -6 105 -48 118 -12 4 -22 12 -22 17 0
5 -7 9 -15 9 -8 0 -15 5 -15 11 0 11 -25 39 -35 39 -8 0 -65 56 -65 65 0 6
-10 19 -38 50 -6 7 -12 18 -12 24 0 6 -7 11 -15 11 -8 0 -15 5 -15 11 0 14
-25 39 -39 39 -6 0 -11 7 -11 15 0 8 -4 15 -10 15 -5 0 -10 11 -10 25 0 16 -6
25 -15 25 -8 0 -15 5 -15 11 0 14 -25 39 -39 39 -6 0 -11 7 -11 15 0 8 -4 15
-10 15 -5 0 -12 11 -16 25 -3 14 -10 25 -15 25 -5 0 -9 11 -9 25 0 14 -4 25
-9 25 -5 0 -13 10 -17 22 -8 26 -28 48 -43 48 -6 0 -11 14 -11 30 0 17 -4 30
-10 30 -5 0 -10 9 -10 21 0 22 -22 49 -39 49 -6 0 -11 18 -11 40 0 29 -4 40
-15 40 -10 0 -15 11 -15 35 0 19 -4 35 -9 35 -5 0 -12 11 -15 25 -4 14 -11 25
-16 25 -6 0 -10 11 -10 25 0 14 -4 25 -9 25 -5 0 -12 13 -16 30 -4 16 -11 30
-16 30 -5 0 -9 27 -9 60 0 33 -4 60 -9 60 -5 0 -12 11 -15 25 -4 14 -11 25
-16 25 -6 0 -10 29 -10 65 0 37 -4 65 -10 65 -6 0 -10 32 -10 75 0 60 -3 75
-15 75 -13 0 -15 43 -15 330 0 184 4 330 9 330 5 0 12 34 16 75 4 41 11 75 16
75 5 0 9 29 9 65 0 51 3 65 15 65 11 0 15 11 15 40 0 22 5 40 10 40 6 0 10 15
10 34 0 21 6 36 15 40 9 3 15 19 15 41 0 19 5 35 10 35 6 0 10 16 10 36 0 35
18 64 39 64 6 0 11 18 11 40 0 29 4 40 15 40 9 0 15 9 15 25 0 14 5 25 10 25
6 0 10 11 10 25 0 16 6 25 15 25 9 0 15 9 15 25 0 14 5 25 10 25 6 0 10 11 10
25 0 16 6 25 15 25 8 0 15 5 15 10 0 10 8 22 37 55 7 7 13 25 13 39 0 14 5 26
10 26 6 0 10 11 10 25 0 16 6 25 15 25 8 0 15 5 15 10 0 6 7 10 15 10 8 0 15
7 15 15 0 8 5 15 10 15 6 0 10 11 10 25 0 14 5 25 11 25 14 0 39 25 39 39 0 6
7 11 15 11 8 0 15 7 15 15 0 8 5 15 10 15 6 0 10 11 10 25 0 14 5 25 11 25 14
0 39 25 39 39 0 6 5 11 11 11 14 0 39 25 39 39 0 6 7 11 15 11 8 0 15 5 15 10
0 6 7 10 15 10 8 0 15 7 15 15 0 8 5 15 10 15 6 0 10 5 10 11 0 14 25 39 39
39 6 0 11 5 11 10 0 6 7 10 15 10 8 0 15 7 15 15 0 8 5 15 10 15 6 0 10 7 10
15 0 8 7 15 15 15 8 0 15 5 15 10 0 6 11 10 25 10 14 0 25 5 25 11 0 14 25 39
39 39 6 0 11 7 11 15 0 8 5 15 10 15 10 0 22 8 55 38 7 6 18 12 24 12 6 0 11
5 11 10 0 6 11 10 25 10 16 0 25 6 25 15 0 9 9 15 25 15 14 0 25 5 25 10 0 6
7 10 15 10 8 0 15 5 15 11 0 17 27 39 47 39 19 0 53 32 53 50 0 6 11 10 25 10
14 0 25 5 25 10 0 6 11 10 25 10 16 0 25 6 25 15 0 9 9 15 25 15 14 0 25 5 25
10 0 6 18 10 40 10 22 0 40 4 40 9 0 5 10 13 22 17 12 3 28 13 36 20 7 8 20
14 28 14 8 0 14 5 14 10 0 6 23 10 50 10 28 0 50 4 50 9 0 5 11 12 25 15 14 4
25 11 25 16 0 6 23 10 50 10 28 0 50 4 50 9 0 5 18 11 40 15 22 3 40 11 40 16
0 6 23 10 50 10 38 0 50 4 50 15 0 12 14 15 65 15 37 0 65 4 65 10 0 6 37 10
90 10 52 0 90 4 90 10 0 6 117 11 318 13 174 1 338 3 365 5 36 1 47 -1 47 -13z
m2260 -385 c0 -5 23 -10 50 -10 28 0 50 -4 50 -10 0 -6 28 -10 64 -10 44 0 69
-5 80 -15 8 -8 31 -15 50 -15 20 0 36 -4 36 -10 0 -5 11 -12 25 -16 14 -3 25
-10 25 -15 0 -5 23 -9 50 -9 38 0 50 -4 50 -15 0 -9 9 -15 25 -15 14 0 25 -4
25 -10 0 -5 18 -10 40 -10 29 0 40 -4 40 -15 0 -9 9 -15 25 -15 14 0 25 -4 25
-10 0 -5 11 -10 25 -10 16 0 25 -6 25 -15 0 -8 7 -15 15 -15 8 0 15 -4 15 -10
0 -5 11 -12 25 -16 14 -3 25 -10 25 -15 0 -5 7 -9 15 -9 9 0 26 -11 39 -25 13
-14 33 -25 45 -25 12 0 21 -6 21 -15 0 -8 7 -15 15 -15 8 0 15 -4 15 -10 0 -5
11 -10 25 -10 14 0 25 -5 25 -11 0 -14 25 -39 39 -39 6 0 11 -7 11 -15 0 -9 9
-15 25 -15 14 0 25 -4 25 -10 0 -5 7 -10 15 -10 8 0 15 -5 15 -11 0 -14 25
-39 39 -39 6 0 11 -7 11 -15 0 -8 5 -15 10 -15 6 0 10 -7 10 -15 0 -8 5 -15
11 -15 14 0 39 -25 39 -39 0 -6 5 -11 11 -11 14 0 39 -25 39 -39 0 -6 5 -11
11 -11 15 0 35 -22 43 -48 4 -12 12 -22 17 -22 5 0 9 -5 9 -11 0 -14 55 -69
69 -69 6 0 11 -11 11 -25 0 -14 5 -25 10 -25 6 0 10 -11 10 -25 0 -16 6 -25
15 -25 8 0 15 -5 15 -11 0 -14 25 -39 39 -39 6 0 11 -16 11 -36 0 -35 18 -64
39 -64 6 0 11 -18 11 -40 0 -22 5 -40 10 -40 6 0 10 -11 10 -25 0 -16 6 -25
15 -25 9 0 15 -9 15 -25 0 -14 5 -25 10 -25 6 0 10 -11 10 -25 0 -16 6 -25 15
-25 10 0 15 -10 15 -30 0 -21 12 -42 41 -72 69 -72 92 -151 73 -242 -8 -37
-13 -132 -14 -238 0 -98 -4 -178 -9 -178 -5 0 -11 -23 -13 -52 -3 -29 -11 -54
-17 -56 -7 -2 -11 -32 -11 -78 0 -41 -4 -74 -9 -74 -4 0 -11 -27 -15 -60 -4
-33 -11 -60 -16 -60 -6 0 -10 -22 -10 -50 0 -27 -4 -50 -9 -50 -5 0 -12 -11
-15 -25 -4 -14 -11 -25 -16 -25 -6 0 -10 -13 -10 -30 0 -16 -4 -30 -10 -30 -5
0 -12 -11 -16 -25 -3 -14 -10 -25 -15 -25 -5 0 -9 -11 -9 -25 0 -16 -6 -25
-15 -25 -9 0 -15 -9 -15 -25 0 -14 -4 -25 -10 -25 -5 0 -10 -11 -10 -25 0 -16
-6 -25 -15 -25 -9 0 -15 -9 -15 -25 0 -14 -4 -25 -10 -25 -5 0 -10 -11 -10
-25 0 -16 -6 -25 -15 -25 -8 0 -15 -5 -15 -11 0 -14 -25 -39 -39 -39 -6 0 -11
-11 -11 -25 0 -14 -4 -25 -10 -25 -5 0 -10 -7 -10 -15 0 -8 -7 -15 -15 -15 -8
0 -15 -4 -15 -10 0 -5 -7 -10 -15 -10 -8 0 -15 -7 -15 -15 0 -8 -4 -15 -10
-15 -5 0 -10 -11 -10 -25 0 -14 -5 -25 -11 -25 -14 0 -39 -25 -39 -39 0 -6 -5
-11 -11 -11 -14 0 -39 -25 -39 -39 0 -6 -7 -11 -15 -11 -8 0 -15 -5 -15 -11 0
-14 -25 -39 -39 -39 -6 0 -11 -5 -11 -11 0 -14 -25 -39 -39 -39 -6 0 -11 -7
-11 -15 0 -8 -5 -15 -11 -15 -14 0 -39 -25 -39 -39 0 -6 -11 -11 -25 -11 -14
0 -25 -4 -25 -10 0 -5 -7 -10 -15 -10 -8 0 -15 -7 -15 -15 0 -8 -4 -15 -10
-15 -5 0 -10 -22 -10 -50 0 -27 4 -50 9 -50 5 0 11 -18 15 -40 3 -22 11 -40
16 -40 6 0 10 -16 10 -35 0 -19 4 -35 9 -35 5 0 11 -18 15 -40 3 -22 11 -40
16 -40 6 0 10 -22 10 -50 0 -27 5 -50 10 -50 6 0 10 -11 10 -25 0 -16 6 -25
15 -25 11 0 15 -12 15 -50 0 -38 4 -50 15 -50 11 0 15 -11 15 -40 0 -22 5 -40
10 -40 6 0 10 -27 10 -60 0 -33 -4 -60 -10 -60 -5 0 -10 5 -10 10 0 6 -11 10
-25 10 -24 0 -33 5 -70 37 -7 7 -18 13 -24 13 -6 0 -11 7 -11 15 0 8 -7 15
-15 15 -8 0 -15 5 -15 10 0 6 -11 10 -25 10 -14 0 -25 4 -25 9 0 5 -10 13 -22
17 -26 8 -48 28 -48 43 0 6 -11 11 -25 11 -14 0 -25 4 -25 9 0 5 -11 12 -25
15 -14 4 -25 11 -25 16 0 6 -11 10 -25 10 -14 0 -25 5 -25 10 0 6 -7 10 -15
10 -8 0 -15 7 -15 15 0 8 -7 15 -15 15 -8 0 -15 4 -15 10 0 5 -11 12 -25 16
-14 3 -25 10 -25 15 0 5 -11 9 -25 9 -14 0 -25 4 -25 10 0 5 -11 12 -25 16
-14 3 -25 10 -25 15 0 5 -5 9 -10 9 -10 0 -22 8 -56 39 -29 26 -104 6 -238
-66 -36 -19 -129 -18 -291 3 -66 9 -185 18 -265 21 -80 3 -147 9 -150 14 -3 5
-45 12 -93 15 -48 4 -87 11 -87 15 0 5 -29 9 -65 9 -36 0 -65 4 -65 9 0 5 -22
12 -50 16 -27 4 -50 11 -50 16 0 5 -18 9 -40 9 -22 0 -40 4 -40 10 0 5 -11 12
-25 16 -14 3 -25 10 -25 15 0 5 -11 9 -24 9 -14 0 -31 7 -40 15 -8 8 -23 15
-34 15 -11 0 -22 7 -26 15 -3 8 -15 15 -26 15 -11 0 -20 5 -20 10 0 6 -11 10
-25 10 -24 0 -33 5 -70 37 -7 7 -30 13 -49 13 -20 0 -36 5 -36 10 0 6 -7 10
-15 10 -8 0 -15 7 -15 15 0 8 -4 15 -10 15 -5 0 -10 7 -10 15 0 9 -9 15 -25
15 -14 0 -25 5 -25 10 0 6 -7 10 -15 10 -8 0 -15 7 -15 15 0 9 -9 15 -21 15
-22 0 -49 22 -49 39 0 6 -7 11 -15 11 -8 0 -15 5 -15 10 0 6 -11 10 -25 10
-16 0 -25 6 -25 15 0 8 -5 15 -11 15 -14 0 -39 25 -39 39 0 6 -5 11 -11 11
-14 0 -39 25 -39 39 0 6 -7 11 -15 11 -8 0 -15 5 -15 11 0 14 -25 39 -39 39
-6 0 -11 5 -11 11 0 14 -25 39 -39 39 -6 0 -11 11 -11 25 0 14 -4 25 -10 25
-5 0 -10 7 -10 15 0 8 -7 15 -15 15 -8 0 -15 5 -15 10 0 6 -7 10 -15 10 -8 0
-15 7 -15 15 0 8 -4 15 -10 15 -5 0 -10 11 -10 25 0 14 -5 25 -11 25 -17 0
-39 27 -39 50 0 19 -5 29 -37 65 -7 7 -13 18 -13 24 0 6 -7 11 -15 11 -9 0
-15 9 -15 25 0 14 -4 25 -9 25 -5 0 -12 11 -15 25 -4 14 -11 25 -16 25 -6 0
-10 18 -10 40 0 22 -4 40 -10 40 -5 0 -10 11 -10 25 0 16 -6 25 -15 25 -9 0
-15 9 -15 25 0 14 -4 25 -10 25 -5 0 -10 11 -10 25 0 16 -6 25 -15 25 -11 0
-15 11 -15 36 0 19 -7 42 -15 50 -10 11 -15 36 -15 80 0 36 -4 64 -10 64 -6 0
-10 32 -10 75 0 43 -4 75 -10 75 -6 0 -10 78 -10 215 0 137 4 215 10 215 6 0
10 37 10 90 0 50 4 90 9 90 5 0 12 23 16 50 4 28 11 50 16 50 5 0 9 18 9 40 0
22 5 40 10 40 6 0 10 11 10 25 0 16 6 25 15 25 11 0 15 11 15 40 0 22 4 40 10
40 5 0 12 11 16 25 3 14 10 25 15 25 5 0 9 16 9 35 0 24 5 35 15 35 9 0 15 9
15 25 0 14 5 25 10 25 6 0 10 7 10 15 0 8 7 15 15 15 9 0 15 9 15 25 0 14 5
25 10 25 6 0 10 11 10 25 0 16 6 25 15 25 9 0 15 9 15 25 0 14 5 25 10 25 6 0
10 7 10 15 0 8 5 15 11 15 15 0 35 22 43 48 4 12 12 22 17 22 5 0 9 7 9 15 0
8 5 15 11 15 14 0 39 25 39 39 0 6 5 11 11 11 14 0 39 25 39 39 0 6 7 11 15
11 9 0 15 9 15 25 0 14 5 25 10 25 6 0 10 7 10 15 0 9 9 15 25 15 14 0 25 5
25 10 0 6 7 10 15 10 8 0 15 5 15 11 0 14 25 39 39 39 6 0 11 5 11 11 0 14 25
39 39 39 6 0 11 7 11 15 0 8 5 15 11 15 14 0 39 25 39 39 0 6 11 11 25 11 14
0 25 4 25 9 0 5 11 12 25 15 14 4 25 11 25 16 0 6 5 10 11 10 7 0 22 11 35 25
13 14 30 25 39 25 9 0 23 6 30 13 33 29 45 37 55 37 5 0 10 7 10 15 0 9 9 15
25 15 14 0 25 5 25 10 0 6 18 10 40 10 22 0 40 4 40 10 0 5 11 12 25 16 14 3
25 10 25 15 0 5 11 9 25 9 16 0 25 6 25 15 0 10 11 15 35 15 19 0 35 5 35 10
0 6 18 10 40 10 29 0 40 4 40 15 0 11 12 15 50 15 28 0 50 4 50 9 0 5 18 11
40 15 22 3 40 11 40 16 0 6 32 10 75 10 43 0 75 4 75 10 0 6 108 10 305 10
197 0 305 -4 305 -10z"/>
<path d="M4940 5375 c0 -8 -9 -15 -21 -15 -11 0 -44 -24 -75 -54 l-54 -55 0
-135 c0 -75 4 -136 9 -136 5 0 12 -11 15 -25 4 -14 11 -25 16 -25 6 0 10 -7
10 -15 0 -8 7 -15 15 -15 8 0 15 -4 15 -10 0 -5 9 -10 21 -10 11 0 27 -7 35
-15 14 -13 133 -15 955 -15 828 0 939 2 939 15 0 9 9 15 25 15 14 0 25 5 25
10 0 6 7 10 15 10 8 0 15 7 15 15 0 8 5 15 10 15 6 0 10 11 10 25 0 16 6 25
15 25 9 0 15 9 15 25 0 14 5 25 10 25 6 0 10 37 10 90 0 53 -4 90 -10 90 -5 0
-10 11 -10 25 0 16 -6 25 -15 25 -8 0 -15 5 -15 11 0 14 -25 39 -39 39 -6 0
-11 5 -11 11 0 18 -27 39 -50 39 -12 0 -28 7 -36 15 -14 13 -130 15 -930 15
-806 0 -914 -2 -914 -15z"/>
<path d="M4970 4560 c0 -5 -16 -10 -36 -10 -26 0 -43 -8 -65 -29 -16 -16 -29
-34 -29 -40 0 -6 -4 -11 -10 -11 -5 0 -12 -11 -16 -25 -3 -14 -10 -25 -15 -25
-5 0 -9 -56 -9 -125 0 -69 4 -125 9 -125 5 0 12 -11 15 -25 4 -14 11 -25 16
-25 6 0 10 -7 10 -15 0 -9 9 -15 25 -15 14 0 25 -4 25 -10 0 -5 7 -10 15 -10
8 0 15 -7 15 -15 0 -13 67 -15 541 -15 l540 0 55 54 c30 31 54 64 54 75 0 12
5 21 10 21 6 0 10 42 10 105 0 63 -4 105 -10 105 -5 0 -10 9 -10 21 0 11 -24
44 -54 75 -46 45 -61 54 -90 54 -20 0 -36 5 -36 10 0 7 -167 10 -480 10 -313
0 -480 -3 -480 -10z"/>
</g>
</svg>
